<?xml version="1.0" encoding="UTF-8"?>
<svg xmlns="http://www.w3.org/2000/svg" xmlns:xlink="http://www.w3.org/1999/xlink" width="375pt" height="374.999991pt" viewBox="0 0 375 374.999991" version="1.2">
<g id="surface1">
<path style=" stroke:none;fill-rule:nonzero;fill:rgb(72.549438%,90.979004%,91.758728%);fill-opacity:1;" d="M 187.5 0 C 83.964844 0 0 83.964844 0 187.5 C 0 291.035156 83.964844 375 187.5 375 C 291.035156 375 375 291.035156 375 187.5 C 375 83.964844 291.035156 0 187.5 0 Z M 187.5 0 "/>
<path style=" stroke:none;fill-rule:nonzero;fill:rgb(51.368713%,63.919067%,29.40979%);fill-opacity:1;" d="M 0 187.5 C 0 291.035156 83.964844 375 187.5 375 C 291.035156 375 375 291.035156 375 187.5 Z M 0 187.5 "/>
<path style=" stroke:none;fill-rule:nonzero;fill:rgb(57.649231%,57.649231%,57.649231%);fill-opacity:1;" d="M 187.878906 86.984375 L 143.667969 95.375 L 143.667969 101.195312 L 232.390625 101.195312 L 232.390625 95.375 Z M 187.878906 86.984375 "/>
<path style=" stroke:none;fill-rule:nonzero;fill:rgb(80.778503%,80.778503%,80.778503%);fill-opacity:1;" d="M 187.878906 93.257812 L 146.839844 100.210938 L 146.839844 133.84375 L 229.140625 133.84375 L 229.140625 100.210938 Z M 187.878906 93.257812 "/>
<path style=" stroke:none;fill-rule:nonzero;fill:rgb(71.369934%,70.588684%,70.979309%);fill-opacity:1;" d="M 187.878906 93.257812 L 187.574219 133.84375 L 229.140625 133.84375 L 229.140625 100.210938 Z M 187.878906 93.257812 "/>
<path style=" stroke:none;fill-rule:nonzero;fill:rgb(57.649231%,57.649231%,57.649231%);fill-opacity:1;" d="M 187.878906 100.664062 L 143.667969 107.617188 L 143.667969 113.664062 L 232.390625 113.664062 L 232.390625 107.617188 Z M 187.878906 100.664062 "/>
<path style=" stroke:none;fill-rule:nonzero;fill:rgb(80.778503%,80.778503%,80.778503%);fill-opacity:1;" d="M 187.878906 106.332031 L 146.839844 112.757812 L 146.839844 146.386719 L 229.140625 146.386719 L 229.140625 112.757812 Z M 187.878906 106.332031 "/>
<path style=" stroke:none;fill-rule:nonzero;fill:rgb(71.369934%,70.588684%,70.979309%);fill-opacity:1;" d="M 187.878906 106.332031 L 187.878906 146.386719 L 229.140625 146.386719 L 229.140625 112.757812 Z M 187.878906 106.332031 "/>
<path style=" stroke:none;fill-rule:nonzero;fill:rgb(53.729248%,53.729248%,53.729248%);fill-opacity:1;" d="M 194.152344 112 L 194.152344 139.058594 L 222.945312 139.058594 L 222.945312 115.628906 Z M 194.152344 112 "/>
<path style=" stroke:none;fill-rule:nonzero;fill:rgb(53.729248%,53.729248%,53.729248%);fill-opacity:1;" d="M 162.789062 114.117188 L 162.789062 125.226562 L 168.757812 125.226562 L 168.757812 113.363281 Z M 162.789062 114.117188 "/>
<path style=" stroke:none;fill-rule:nonzero;fill:rgb(71.369934%,70.588684%,70.979309%);fill-opacity:1;" d="M 199.363281 111.773438 L 199.363281 140.796875 L 203.371094 140.796875 L 203.371094 112 Z M 199.363281 111.773438 "/>
<path style=" stroke:none;fill-rule:nonzero;fill:rgb(71.369934%,70.588684%,70.979309%);fill-opacity:1;" d="M 215.085938 111.773438 L 215.085938 140.796875 L 219.164062 140.796875 L 219.164062 113.589844 Z M 215.085938 111.773438 "/>
<path style=" stroke:none;fill-rule:nonzero;fill:rgb(71.369934%,70.588684%,70.979309%);fill-opacity:1;" d="M 354.140625 218.109375 L 346.8125 218.109375 L 340.539062 208.359375 L 332.300781 208.132812 L 325.5 196.71875 L 317.714844 196.71875 L 312.425781 186.441406 L 303.882812 185.761719 L 298.519531 174.726562 L 290.128906 173.972656 L 285.445312 163.316406 L 275.847656 162.257812 L 270.480469 152.207031 L 261.863281 151.074219 L 257.632812 140.265625 L 247.960938 138.832031 L 243.804688 128.023438 L 187.878906 118.574219 L 187.878906 233.375 L 360.566406 230.046875 Z M 354.140625 218.109375 "/>
<path style=" stroke:none;fill-rule:nonzero;fill:rgb(57.649231%,57.649231%,57.649231%);fill-opacity:1;" d="M 202.3125 221.660156 L 187.878906 221.660156 L 187.878906 229.140625 L 203.523438 229.140625 Z M 202.3125 221.660156 "/>
<path style=" stroke:none;fill-rule:nonzero;fill:rgb(57.649231%,57.649231%,57.649231%);fill-opacity:1;" d="M 227.402344 221.660156 L 213.042969 221.660156 L 213.722656 229.140625 L 228.160156 229.140625 Z M 227.402344 221.660156 "/>
<path style=" stroke:none;fill-rule:nonzero;fill:rgb(57.649231%,57.649231%,57.649231%);fill-opacity:1;" d="M 248.640625 221.507812 L 235.941406 221.433594 L 237.605469 228.914062 L 250.527344 228.535156 Z M 248.640625 221.507812 "/>
<path style=" stroke:none;fill-rule:nonzero;fill:rgb(57.649231%,57.649231%,57.649231%);fill-opacity:1;" d="M 267.761719 221.433594 L 257.179688 221.660156 L 258.765625 227.554688 L 268.816406 227.480469 Z M 267.761719 221.433594 "/>
<path style=" stroke:none;fill-rule:nonzero;fill:rgb(57.649231%,57.649231%,57.649231%);fill-opacity:1;" d="M 200.5 208.28125 L 187.878906 208.28125 L 187.878906 215.007812 L 201.558594 215.007812 Z M 200.5 208.28125 "/>
<path style=" stroke:none;fill-rule:nonzero;fill:rgb(57.649231%,57.649231%,57.649231%);fill-opacity:1;" d="M 222.339844 208.28125 L 209.792969 208.28125 L 210.472656 215.007812 L 223.019531 215.007812 Z M 222.339844 208.28125 "/>
<path style=" stroke:none;fill-rule:nonzero;fill:rgb(57.649231%,57.649231%,57.649231%);fill-opacity:1;" d="M 240.855469 208.132812 L 229.820312 208.132812 L 231.257812 214.027344 L 242.292969 214.480469 Z M 240.855469 208.132812 "/>
<path style=" stroke:none;fill-rule:nonzero;fill:rgb(57.649231%,57.649231%,57.649231%);fill-opacity:1;" d="M 257.558594 208.132812 L 248.335938 208.28125 L 249.699219 214.328125 L 259.21875 214.632812 Z M 257.558594 208.132812 "/>
<path style=" stroke:none;fill-rule:nonzero;fill:rgb(57.649231%,57.649231%,57.649231%);fill-opacity:1;" d="M 198.683594 194 L 187.878906 194 L 187.878906 200.726562 L 199.515625 200.726562 Z M 198.683594 194 "/>
<path style=" stroke:none;fill-rule:nonzero;fill:rgb(57.649231%,57.649231%,57.649231%);fill-opacity:1;" d="M 217.351562 194.753906 L 206.621094 194.753906 L 207.148438 201.40625 L 217.882812 201.40625 Z M 217.351562 194.753906 "/>
<path style=" stroke:none;fill-rule:nonzero;fill:rgb(57.649231%,57.649231%,57.649231%);fill-opacity:1;" d="M 233.222656 195.890625 L 223.699219 195.8125 L 224.910156 201.707031 L 234.433594 202.160156 Z M 233.222656 195.890625 "/>
<path style=" stroke:none;fill-rule:nonzero;fill:rgb(57.649231%,57.649231%,57.649231%);fill-opacity:1;" d="M 249.09375 196.191406 L 241.234375 196.417969 L 242.367188 202.464844 L 250.679688 202.691406 Z M 249.09375 196.191406 "/>
<path style=" stroke:none;fill-rule:nonzero;fill:rgb(57.649231%,57.649231%,57.649231%);fill-opacity:1;" d="M 197.171875 181.304688 L 187.878906 181.304688 L 187.878906 187.953125 L 197.929688 187.953125 Z M 197.171875 181.304688 "/>
<path style=" stroke:none;fill-rule:nonzero;fill:rgb(57.649231%,57.649231%,57.649231%);fill-opacity:1;" d="M 213.269531 181.984375 L 204.050781 181.984375 L 204.503906 188.710938 L 213.722656 188.710938 Z M 213.269531 181.984375 "/>
<path style=" stroke:none;fill-rule:nonzero;fill:rgb(57.649231%,57.649231%,57.649231%);fill-opacity:1;" d="M 226.875 183.117188 L 218.710938 183.042969 L 219.769531 189.011719 L 227.933594 189.464844 Z M 226.875 183.117188 "/>
<path style=" stroke:none;fill-rule:nonzero;fill:rgb(57.649231%,57.649231%,57.649231%);fill-opacity:1;" d="M 240.628906 183.496094 L 233.828125 183.644531 L 234.886719 189.765625 L 242.066406 189.917969 Z M 240.628906 183.496094 "/>
<path style=" stroke:none;fill-rule:nonzero;fill:rgb(57.649231%,57.649231%,57.649231%);fill-opacity:1;" d="M 195.8125 168.230469 L 187.878906 168.230469 L 187.878906 174.953125 L 196.417969 174.953125 Z M 195.8125 168.230469 "/>
<path style=" stroke:none;fill-rule:nonzero;fill:rgb(57.649231%,57.649231%,57.649231%);fill-opacity:1;" d="M 209.492188 168.984375 L 201.632812 168.984375 L 202.011719 175.636719 L 209.945312 175.636719 Z M 209.492188 168.984375 "/>
<path style=" stroke:none;fill-rule:nonzero;fill:rgb(57.649231%,57.649231%,57.649231%);fill-opacity:1;" d="M 221.128906 170.117188 L 214.175781 170.042969 L 215.085938 176.011719 L 222.039062 176.390625 Z M 221.128906 170.117188 "/>
<path style=" stroke:none;fill-rule:nonzero;fill:rgb(57.649231%,57.649231%,57.649231%);fill-opacity:1;" d="M 232.84375 170.496094 L 227.101562 170.648438 L 227.933594 176.691406 L 234.054688 177.144531 Z M 232.84375 170.496094 "/>
<path style=" stroke:none;fill-rule:nonzero;fill:rgb(57.649231%,57.649231%,57.649231%);fill-opacity:1;" d="M 194.527344 156.289062 L 187.878906 156.289062 L 187.878906 162.257812 L 195.132812 162.9375 Z M 194.527344 156.289062 "/>
<path style=" stroke:none;fill-rule:nonzero;fill:rgb(57.649231%,57.649231%,57.649231%);fill-opacity:1;" d="M 206.167969 156.96875 L 199.515625 156.96875 L 199.820312 163.316406 L 206.542969 163.695312 Z M 206.167969 156.96875 "/>
<path style=" stroke:none;fill-rule:nonzero;fill:rgb(57.649231%,57.649231%,57.649231%);fill-opacity:1;" d="M 215.992188 158.101562 L 210.097656 158.027344 L 210.929688 163.996094 L 216.746094 164.375 Z M 215.992188 158.101562 "/>
<path style=" stroke:none;fill-rule:nonzero;fill:rgb(57.649231%,57.649231%,57.649231%);fill-opacity:1;" d="M 225.890625 158.480469 L 220.980469 158.628906 L 221.734375 164.753906 L 226.722656 165.28125 Z M 225.890625 158.480469 "/>
<path style=" stroke:none;fill-rule:nonzero;fill:rgb(57.649231%,57.649231%,57.649231%);fill-opacity:1;" d="M 193.167969 145.101562 L 187.878906 145.101562 L 187.878906 150.242188 L 193.546875 150.621094 Z M 193.167969 145.101562 "/>
<path style=" stroke:none;fill-rule:nonzero;fill:rgb(57.649231%,57.649231%,57.649231%);fill-opacity:1;" d="M 202.3125 145.707031 L 197.023438 145.707031 L 197.324219 150.996094 L 202.539062 151.222656 Z M 202.3125 145.707031 "/>
<path style=" stroke:none;fill-rule:nonzero;fill:rgb(57.649231%,57.649231%,57.649231%);fill-opacity:1;" d="M 210.019531 146.613281 L 205.410156 146.613281 L 206.015625 151.527344 L 210.625 151.828125 Z M 210.019531 146.613281 "/>
<path style=" stroke:none;fill-rule:nonzero;fill:rgb(57.649231%,57.649231%,57.649231%);fill-opacity:1;" d="M 217.804688 146.917969 L 213.949219 147.066406 L 214.554688 152.132812 L 218.410156 152.359375 Z M 217.804688 146.917969 "/>
<path style=" stroke:none;fill-rule:nonzero;fill:rgb(57.649231%,57.649231%,57.649231%);fill-opacity:1;" d="M 191.730469 134.371094 L 187.878906 134.371094 L 187.878906 139.132812 L 192.109375 139.585938 Z M 191.730469 134.371094 "/>
<path style=" stroke:none;fill-rule:nonzero;fill:rgb(57.649231%,57.649231%,57.649231%);fill-opacity:1;" d="M 198.535156 134.976562 L 194.679688 134.976562 L 194.832031 139.8125 L 198.761719 140.492188 Z M 198.535156 134.976562 "/>
<path style=" stroke:none;fill-rule:nonzero;fill:rgb(57.649231%,57.649231%,57.649231%);fill-opacity:1;" d="M 204.277344 135.882812 L 200.875 135.808594 L 201.332031 140.492188 L 204.730469 141.097656 Z M 204.277344 135.882812 "/>
<path style=" stroke:none;fill-rule:nonzero;fill:rgb(57.649231%,57.649231%,57.649231%);fill-opacity:1;" d="M 210.097656 136.183594 L 207.226562 136.335938 L 207.601562 141.398438 L 210.472656 141.625 Z M 210.097656 136.183594 "/>
<path style=" stroke:none;fill-rule:nonzero;fill:rgb(57.649231%,57.649231%,57.649231%);fill-opacity:1;" d="M 190.824219 121.976562 L 187.878906 121.976562 L 187.878906 126.890625 L 191.050781 127.492188 Z M 190.824219 121.976562 "/>
<path style=" stroke:none;fill-rule:nonzero;fill:rgb(57.649231%,57.649231%,57.649231%);fill-opacity:1;" d="M 195.890625 122.582031 L 192.941406 122.582031 L 193.09375 127.570312 L 196.039062 128.097656 Z M 195.890625 122.582031 "/>
<path style=" stroke:none;fill-rule:nonzero;fill:rgb(57.649231%,57.649231%,57.649231%);fill-opacity:1;" d="M 200.195312 123.488281 L 197.625 123.414062 L 197.929688 128.324219 L 200.5 128.703125 Z M 200.195312 123.488281 "/>
<path style=" stroke:none;fill-rule:nonzero;fill:rgb(60.778809%,60.778809%,60.778809%);fill-opacity:1;" d="M 354.445312 218.789062 L 187.878906 218.257812 L 187.878906 221.585938 L 356.332031 222.1875 Z M 354.445312 218.789062 "/>
<path style=" stroke:none;fill-rule:nonzero;fill:rgb(60.778809%,60.778809%,60.778809%);fill-opacity:1;" d="M 340.914062 209.113281 L 187.878906 204.203125 L 187.878906 208.8125 L 342.351562 211.757812 Z M 340.914062 209.113281 "/>
<path style=" stroke:none;fill-rule:nonzero;fill:rgb(60.778809%,60.778809%,60.778809%);fill-opacity:1;" d="M 325.800781 197.398438 L 188.179688 191.277344 L 188.179688 195.285156 L 327.917969 200.648438 Z M 325.800781 197.398438 "/>
<path style=" stroke:none;fill-rule:nonzero;fill:rgb(60.778809%,60.778809%,60.778809%);fill-opacity:1;" d="M 312.800781 187.199219 L 187.878906 177.828125 L 187.878906 181.832031 L 314.164062 189.691406 Z M 312.800781 187.199219 "/>
<path style=" stroke:none;fill-rule:nonzero;fill:rgb(60.778809%,60.778809%,60.778809%);fill-opacity:1;" d="M 298.820312 175.40625 L 187.878906 165.734375 L 187.878906 169.363281 L 300.179688 178.203125 Z M 298.820312 175.40625 "/>
<path style=" stroke:none;fill-rule:nonzero;fill:rgb(60.778809%,60.778809%,60.778809%);fill-opacity:1;" d="M 285.746094 164.070312 L 187.878906 153.566406 L 187.878906 157.117188 L 287.183594 167.09375 Z M 285.746094 164.070312 "/>
<path style=" stroke:none;fill-rule:nonzero;fill:rgb(60.778809%,60.778809%,60.778809%);fill-opacity:1;" d="M 270.859375 152.960938 L 187.878906 142.230469 L 187.878906 145.328125 L 272.445312 155.910156 Z M 270.859375 152.960938 "/>
<path style=" stroke:none;fill-rule:nonzero;fill:rgb(60.778809%,60.778809%,60.778809%);fill-opacity:1;" d="M 257.933594 140.945312 L 187.878906 130.820312 L 187.878906 134.296875 L 258.765625 143.441406 Z M 257.933594 140.945312 "/>
<path style=" stroke:none;fill-rule:nonzero;fill:rgb(60.778809%,60.778809%,60.778809%);fill-opacity:1;" d="M 244.03125 128.777344 L 187.878906 119.332031 L 187.878906 122.355469 L 244.859375 130.96875 Z M 244.03125 128.777344 "/>
<path style=" stroke:none;fill-rule:nonzero;fill:rgb(57.649231%,57.649231%,57.649231%);fill-opacity:1;" d="M 355.957031 221.355469 L 347.265625 221.355469 L 349.152344 226.421875 L 358.75 226.648438 Z M 355.957031 221.355469 "/>
<path style=" stroke:none;fill-rule:nonzero;fill:rgb(57.649231%,57.649231%,57.649231%);fill-opacity:1;" d="M 341.746094 221.128906 L 331.921875 221.28125 L 333.207031 226.570312 L 343.5625 226.722656 Z M 341.746094 221.128906 "/>
<path style=" stroke:none;fill-rule:nonzero;fill:rgb(57.649231%,57.649231%,57.649231%);fill-opacity:1;" d="M 342.199219 210.851562 L 335.324219 210.777344 L 337.441406 215.839844 L 345.300781 215.765625 Z M 342.199219 210.851562 "/>
<path style=" stroke:none;fill-rule:nonzero;fill:rgb(57.649231%,57.649231%,57.649231%);fill-opacity:1;" d="M 329.503906 210.777344 L 321.34375 210.625 L 323.382812 215.234375 L 331.316406 215.460938 Z M 329.503906 210.777344 "/>
<path style=" stroke:none;fill-rule:nonzero;fill:rgb(57.649231%,57.649231%,57.649231%);fill-opacity:1;" d="M 314.917969 210.398438 L 310.460938 210.398438 L 314.164062 215.234375 L 317.414062 215.234375 Z M 314.917969 210.398438 "/>
<path style=" stroke:none;fill-rule:nonzero;fill:rgb(57.649231%,57.649231%,57.649231%);fill-opacity:1;" d="M 316.503906 199.441406 L 309.476562 199.136719 L 311.746094 204.65625 L 318.546875 204.65625 Z M 316.503906 199.441406 "/>
<path style=" stroke:none;fill-rule:nonzero;fill:rgb(57.649231%,57.649231%,57.649231%);fill-opacity:1;" d="M 327.386719 199.820312 L 321.492188 199.59375 L 324.667969 205.488281 L 330.636719 205.335938 Z M 327.386719 199.820312 "/>
<path style=" stroke:none;fill-rule:nonzero;fill:rgb(57.649231%,57.649231%,57.649231%);fill-opacity:1;" d="M 313.785156 188.9375 L 307.964844 188.332031 L 310.460938 194.152344 L 316.582031 194.378906 Z M 313.785156 188.9375 "/>
<path style=" stroke:none;fill-rule:nonzero;fill:rgb(57.649231%,57.649231%,57.649231%);fill-opacity:1;" d="M 304.035156 188.179688 L 297.460938 187.800781 L 299.652344 193.695312 L 305.394531 194 Z M 304.035156 188.179688 "/>
<path style=" stroke:none;fill-rule:nonzero;fill:rgb(57.649231%,57.649231%,57.649231%);fill-opacity:1;" d="M 299.878906 177.523438 L 295.496094 177.070312 L 297.761719 182.285156 L 302.296875 182.511719 Z M 299.878906 177.523438 "/>
<path style=" stroke:none;fill-rule:nonzero;fill:rgb(57.649231%,57.649231%,57.649231%);fill-opacity:1;" d="M 291.414062 176.769531 L 285.59375 176.316406 L 287.558594 181.453125 L 292.925781 181.605469 Z M 291.414062 176.769531 "/>
<path style=" stroke:none;fill-rule:nonzero;fill:rgb(57.649231%,57.649231%,57.649231%);fill-opacity:1;" d="M 286.804688 166.339844 L 283.628906 166.113281 L 285.972656 171.476562 L 288.996094 171.554688 Z M 286.804688 166.339844 "/>
<path style=" stroke:none;fill-rule:nonzero;fill:rgb(57.649231%,57.649231%,57.649231%);fill-opacity:1;" d="M 279.472656 165.660156 L 274.710938 165.207031 L 277.207031 170.648438 L 281.890625 170.496094 Z M 279.472656 165.660156 "/>
<path style=" stroke:none;fill-rule:nonzero;fill:rgb(57.649231%,57.649231%,57.649231%);fill-opacity:1;" d="M 271.917969 155.003906 L 269.726562 154.625 L 271.992188 159.613281 L 274.410156 159.613281 Z M 271.917969 155.003906 "/>
<path style=" stroke:none;fill-rule:nonzero;fill:rgb(57.649231%,57.649231%,57.649231%);fill-opacity:1;" d="M 266.851562 154.472656 L 262.320312 153.945312 L 264.207031 159.007812 L 268.667969 159.3125 Z M 266.851562 154.472656 "/>
<path style=" stroke:none;fill-rule:nonzero;fill:rgb(57.649231%,57.649231%,57.649231%);fill-opacity:1;" d="M 258.617188 142.910156 L 256.953125 142.761719 L 258.390625 147.898438 L 260.582031 147.746094 Z M 258.617188 142.910156 "/>
<path style=" stroke:none;fill-rule:nonzero;fill:rgb(57.649231%,57.649231%,57.649231%);fill-opacity:1;" d="M 253.628906 142.304688 L 249.472656 142.078125 L 251.964844 147.21875 L 255.441406 146.917969 Z M 253.628906 142.304688 "/>
<path style=" stroke:none;fill-rule:nonzero;fill:rgb(57.649231%,57.649231%,57.649231%);fill-opacity:1;" d="M 244.632812 130.367188 L 242.519531 130.214844 L 244.632812 135.125 L 246.371094 134.824219 Z M 244.632812 130.367188 "/>
<path style=" stroke:none;fill-rule:nonzero;fill:rgb(66.668701%,66.668701%,66.668701%);fill-opacity:1;" d="M 354.140625 218.109375 L 187.878906 217.578125 L 187.878906 220.902344 L 355.804688 221.433594 Z M 354.140625 218.109375 "/>
<path style=" stroke:none;fill-rule:nonzero;fill:rgb(66.668701%,66.668701%,66.668701%);fill-opacity:1;" d="M 340.539062 208.359375 L 187.878906 203.523438 L 187.878906 208.132812 L 342.277344 211.003906 Z M 340.539062 208.359375 "/>
<path style=" stroke:none;fill-rule:nonzero;fill:rgb(66.668701%,66.668701%,66.668701%);fill-opacity:1;" d="M 325.5 196.71875 L 187.878906 190.597656 L 187.878906 194.527344 L 327.464844 199.894531 Z M 325.5 196.71875 "/>
<path style=" stroke:none;fill-rule:nonzero;fill:rgb(66.668701%,66.668701%,66.668701%);fill-opacity:1;" d="M 312.425781 186.441406 L 187.878906 177.070312 L 187.878906 181.152344 L 313.785156 188.9375 Z M 312.425781 186.441406 "/>
<path style=" stroke:none;fill-rule:nonzero;fill:rgb(66.668701%,66.668701%,66.668701%);fill-opacity:1;" d="M 298.519531 174.726562 L 187.878906 164.980469 L 187.878906 168.605469 L 299.953125 177.523438 Z M 298.519531 174.726562 "/>
<path style=" stroke:none;fill-rule:nonzero;fill:rgb(66.668701%,66.668701%,66.668701%);fill-opacity:1;" d="M 285.445312 163.316406 L 187.878906 152.8125 L 187.878906 156.363281 L 286.878906 166.414062 Z M 285.445312 163.316406 "/>
<path style=" stroke:none;fill-rule:nonzero;fill:rgb(66.668701%,66.668701%,66.668701%);fill-opacity:1;" d="M 270.480469 152.207031 L 187.878906 141.476562 L 187.878906 144.574219 L 271.992188 155.152344 Z M 270.480469 152.207031 "/>
<path style=" stroke:none;fill-rule:nonzero;fill:rgb(66.668701%,66.668701%,66.668701%);fill-opacity:1;" d="M 257.632812 140.265625 L 187.878906 130.140625 L 187.878906 133.617188 L 258.539062 142.761719 Z M 257.632812 140.265625 "/>
<path style=" stroke:none;fill-rule:nonzero;fill:rgb(66.668701%,66.668701%,66.668701%);fill-opacity:1;" d="M 243.804688 128.023438 L 187.878906 118.574219 L 188.027344 121.597656 L 244.632812 130.214844 Z M 243.804688 128.023438 "/>
<path style=" stroke:none;fill-rule:nonzero;fill:rgb(46.669006%,46.669006%,46.669006%);fill-opacity:1;" d="M 201.480469 120.617188 L 198.003906 120.238281 L 201.253906 131.953125 L 206.769531 132.785156 L 209.492188 144.269531 L 214.78125 144.875 L 217.277344 155.757812 L 222.265625 156.515625 L 225.742188 168.304688 L 230.957031 168.757812 L 233.902344 180.472656 L 238.964844 180.773438 L 242.140625 192.867188 L 246.902344 193.167969 L 250.679688 205.5625 L 257.179688 205.714844 L 259.144531 217.730469 L 265.871094 217.652344 L 266.324219 221.054688 L 267.910156 231.484375 L 295.496094 231.484375 Z M 201.480469 120.617188 "/>
<path style=" stroke:none;fill-rule:nonzero;fill:rgb(51.759338%,51.759338%,51.759338%);fill-opacity:1;" d="M 231.558594 125.832031 L 202.917969 120.917969 L 294.664062 231.484375 L 327.160156 230.425781 Z M 231.558594 125.832031 "/>
<path style=" stroke:none;fill-rule:nonzero;fill:rgb(88.238525%,88.238525%,89.019775%);fill-opacity:1;" d="M 205.261719 121.371094 L 199.363281 120.390625 L 292.09375 231.410156 L 297.914062 231.332031 Z M 205.261719 121.371094 "/>
<path style=" stroke:none;fill-rule:nonzero;fill:rgb(88.238525%,88.238525%,89.019775%);fill-opacity:1;" d="M 236.019531 126.738281 L 230.878906 125.832031 L 323.457031 230.652344 L 328.523438 230.652344 Z M 236.019531 126.738281 "/>
<path style=" stroke:none;fill-rule:nonzero;fill:rgb(80.778503%,80.778503%,80.778503%);fill-opacity:1;" d="M 132.027344 128.023438 L 127.871094 138.832031 L 118.121094 140.265625 L 113.964844 151.074219 L 105.351562 152.207031 L 99.910156 162.257812 L 90.3125 163.316406 L 85.625 173.972656 L 77.238281 174.726562 L 71.945312 185.761719 L 63.332031 186.441406 L 58.042969 196.71875 L 50.257812 196.71875 L 43.457031 208.132812 L 35.21875 208.359375 L 29.019531 218.109375 L 21.613281 218.109375 L 15.265625 230.046875 L 187.878906 233.375 L 187.878906 118.574219 Z M 132.027344 128.023438 "/>
<path style=" stroke:none;fill-rule:nonzero;fill:rgb(66.668701%,66.668701%,66.668701%);fill-opacity:1;" d="M 173.441406 221.660156 L 172.234375 229.140625 L 187.878906 229.140625 L 187.878906 221.660156 Z M 173.441406 221.660156 "/>
<path style=" stroke:none;fill-rule:nonzero;fill:rgb(66.668701%,66.668701%,66.668701%);fill-opacity:1;" d="M 148.351562 221.660156 L 147.671875 229.140625 L 162.03125 229.140625 L 162.789062 221.660156 Z M 148.351562 221.660156 "/>
<path style=" stroke:none;fill-rule:nonzero;fill:rgb(66.668701%,66.668701%,66.668701%);fill-opacity:1;" d="M 127.117188 221.507812 L 125.300781 228.535156 L 138.226562 228.914062 L 139.886719 221.433594 Z M 127.117188 221.507812 "/>
<path style=" stroke:none;fill-rule:nonzero;fill:rgb(66.668701%,66.668701%,66.668701%);fill-opacity:1;" d="M 107.996094 221.433594 L 107.011719 227.480469 L 116.988281 227.554688 L 118.574219 221.660156 Z M 107.996094 221.433594 "/>
<path style=" stroke:none;fill-rule:nonzero;fill:rgb(66.668701%,66.668701%,66.668701%);fill-opacity:1;" d="M 175.257812 208.28125 L 174.273438 215.007812 L 187.878906 215.007812 L 187.878906 208.28125 Z M 175.257812 208.28125 "/>
<path style=" stroke:none;fill-rule:nonzero;fill:rgb(66.668701%,66.668701%,66.668701%);fill-opacity:1;" d="M 153.414062 208.28125 L 152.8125 215.007812 L 165.355469 215.007812 L 165.960938 208.28125 Z M 153.414062 208.28125 "/>
<path style=" stroke:none;fill-rule:nonzero;fill:rgb(66.668701%,66.668701%,66.668701%);fill-opacity:1;" d="M 134.898438 208.132812 L 133.464844 214.480469 L 144.5 214.027344 L 146.007812 208.132812 Z M 134.898438 208.132812 "/>
<path style=" stroke:none;fill-rule:nonzero;fill:rgb(66.668701%,66.668701%,66.668701%);fill-opacity:1;" d="M 118.199219 208.132812 L 116.609375 214.632812 L 126.058594 214.328125 L 127.417969 208.28125 Z M 118.199219 208.132812 "/>
<path style=" stroke:none;fill-rule:nonzero;fill:rgb(66.668701%,66.668701%,66.668701%);fill-opacity:1;" d="M 177.144531 194 L 176.238281 200.726562 L 187.878906 200.726562 L 187.878906 194 Z M 177.144531 194 "/>
<path style=" stroke:none;fill-rule:nonzero;fill:rgb(66.668701%,66.668701%,66.668701%);fill-opacity:1;" d="M 158.402344 194.753906 L 157.875 201.40625 L 168.605469 201.40625 L 169.136719 194.753906 Z M 158.402344 194.753906 "/>
<path style=" stroke:none;fill-rule:nonzero;fill:rgb(66.668701%,66.668701%,66.668701%);fill-opacity:1;" d="M 142.609375 195.890625 L 141.398438 202.160156 L 150.847656 201.707031 L 152.054688 195.8125 Z M 142.609375 195.890625 "/>
<path style=" stroke:none;fill-rule:nonzero;fill:rgb(66.668701%,66.668701%,66.668701%);fill-opacity:1;" d="M 126.664062 196.191406 L 125.074219 202.691406 L 133.390625 202.464844 L 134.523438 196.417969 Z M 126.664062 196.191406 "/>
<path style=" stroke:none;fill-rule:nonzero;fill:rgb(66.668701%,66.668701%,66.668701%);fill-opacity:1;" d="M 178.582031 181.304688 L 177.828125 187.953125 L 187.878906 187.953125 L 187.878906 181.304688 Z M 178.582031 181.304688 "/>
<path style=" stroke:none;fill-rule:nonzero;fill:rgb(66.668701%,66.668701%,66.668701%);fill-opacity:1;" d="M 162.484375 181.984375 L 162.03125 188.710938 L 171.25 188.710938 L 171.78125 181.984375 Z M 162.484375 181.984375 "/>
<path style=" stroke:none;fill-rule:nonzero;fill:rgb(66.668701%,66.668701%,66.668701%);fill-opacity:1;" d="M 148.882812 183.117188 L 147.824219 189.464844 L 155.984375 189.011719 L 157.042969 183.042969 Z M 148.882812 183.117188 "/>
<path style=" stroke:none;fill-rule:nonzero;fill:rgb(66.668701%,66.668701%,66.668701%);fill-opacity:1;" d="M 135.125 183.496094 L 133.691406 189.917969 L 140.945312 189.765625 L 141.929688 183.644531 Z M 135.125 183.496094 "/>
<path style=" stroke:none;fill-rule:nonzero;fill:rgb(66.668701%,66.668701%,66.668701%);fill-opacity:1;" d="M 180.019531 168.230469 L 179.339844 174.953125 L 187.878906 174.953125 L 187.878906 168.230469 Z M 180.019531 168.230469 "/>
<path style=" stroke:none;fill-rule:nonzero;fill:rgb(66.668701%,66.668701%,66.668701%);fill-opacity:1;" d="M 166.261719 168.984375 L 165.886719 175.636719 L 173.746094 175.636719 L 174.125 168.984375 Z M 166.261719 168.984375 "/>
<path style=" stroke:none;fill-rule:nonzero;fill:rgb(66.668701%,66.668701%,66.668701%);fill-opacity:1;" d="M 154.625 170.117188 L 153.71875 176.390625 L 160.671875 176.011719 L 161.578125 170.042969 Z M 154.625 170.117188 "/>
<path style=" stroke:none;fill-rule:nonzero;fill:rgb(66.668701%,66.668701%,66.668701%);fill-opacity:1;" d="M 142.910156 170.496094 L 141.777344 177.144531 L 147.824219 176.691406 L 148.730469 170.648438 Z M 142.910156 170.496094 "/>
<path style=" stroke:none;fill-rule:nonzero;fill:rgb(66.668701%,66.668701%,66.668701%);fill-opacity:1;" d="M 181.226562 156.289062 L 180.699219 162.9375 L 187.878906 162.257812 L 187.878906 156.289062 Z M 181.226562 156.289062 "/>
<path style=" stroke:none;fill-rule:nonzero;fill:rgb(66.668701%,66.668701%,66.668701%);fill-opacity:1;" d="M 169.589844 156.96875 L 169.285156 163.695312 L 175.9375 163.316406 L 176.238281 156.96875 Z M 169.589844 156.96875 "/>
<path style=" stroke:none;fill-rule:nonzero;fill:rgb(66.668701%,66.668701%,66.668701%);fill-opacity:1;" d="M 159.765625 158.101562 L 159.007812 164.375 L 164.902344 163.996094 L 165.660156 158.027344 Z M 159.765625 158.101562 "/>
<path style=" stroke:none;fill-rule:nonzero;fill:rgb(66.668701%,66.668701%,66.668701%);fill-opacity:1;" d="M 149.863281 158.480469 L 149.03125 165.28125 L 154.019531 164.753906 L 154.777344 158.628906 Z M 149.863281 158.480469 "/>
<path style=" stroke:none;fill-rule:nonzero;fill:rgb(66.668701%,66.668701%,66.668701%);fill-opacity:1;" d="M 182.664062 145.101562 L 182.210938 150.621094 L 187.878906 150.242188 L 187.878906 145.101562 Z M 182.664062 145.101562 "/>
<path style=" stroke:none;fill-rule:nonzero;fill:rgb(66.668701%,66.668701%,66.668701%);fill-opacity:1;" d="M 173.519531 145.707031 L 173.214844 151.222656 L 178.507812 150.996094 L 178.734375 145.707031 Z M 173.519531 145.707031 "/>
<path style=" stroke:none;fill-rule:nonzero;fill:rgb(66.668701%,66.668701%,66.668701%);fill-opacity:1;" d="M 165.734375 146.613281 L 165.128906 151.828125 L 169.738281 151.527344 L 170.34375 146.613281 Z M 165.734375 146.613281 "/>
<path style=" stroke:none;fill-rule:nonzero;fill:rgb(66.668701%,66.668701%,66.668701%);fill-opacity:1;" d="M 157.949219 146.917969 L 157.347656 152.359375 L 161.199219 152.132812 L 161.804688 147.066406 Z M 157.949219 146.917969 "/>
<path style=" stroke:none;fill-rule:nonzero;fill:rgb(66.668701%,66.668701%,66.668701%);fill-opacity:1;" d="M 184.023438 134.371094 L 183.722656 139.585938 L 187.878906 139.132812 L 187.878906 134.371094 Z M 184.023438 134.371094 "/>
<path style=" stroke:none;fill-rule:nonzero;fill:rgb(66.668701%,66.668701%,66.668701%);fill-opacity:1;" d="M 177.222656 134.976562 L 176.996094 140.492188 L 180.925781 139.8125 L 181.152344 134.976562 Z M 177.222656 134.976562 "/>
<path style=" stroke:none;fill-rule:nonzero;fill:rgb(66.668701%,66.668701%,66.668701%);fill-opacity:1;" d="M 171.476562 135.882812 L 171.023438 141.097656 L 174.5 140.492188 L 174.953125 135.808594 Z M 171.476562 135.882812 "/>
<path style=" stroke:none;fill-rule:nonzero;fill:rgb(66.668701%,66.668701%,66.668701%);fill-opacity:1;" d="M 165.734375 136.183594 L 165.28125 141.625 L 168.152344 141.398438 L 168.53125 136.335938 Z M 165.734375 136.183594 "/>
<path style=" stroke:none;fill-rule:nonzero;fill:rgb(66.668701%,66.668701%,66.668701%);fill-opacity:1;" d="M 185.007812 121.976562 L 184.703125 127.492188 L 187.878906 126.890625 L 187.878906 121.976562 Z M 185.007812 121.976562 "/>
<path style=" stroke:none;fill-rule:nonzero;fill:rgb(66.668701%,66.668701%,66.668701%);fill-opacity:1;" d="M 179.867188 122.582031 L 179.714844 128.097656 L 182.664062 127.570312 L 182.8125 122.582031 Z M 179.867188 122.582031 "/>
<path style=" stroke:none;fill-rule:nonzero;fill:rgb(66.668701%,66.668701%,66.668701%);fill-opacity:1;" d="M 175.558594 123.488281 L 175.257812 128.703125 L 177.828125 128.324219 L 178.128906 123.414062 Z M 175.558594 123.488281 "/>
<path style=" stroke:none;fill-rule:nonzero;fill:rgb(66.668701%,66.668701%,66.668701%);fill-opacity:1;" d="M 19.875 221.355469 L 17.003906 226.648438 L 26.601562 226.421875 L 28.492188 221.355469 Z M 19.875 221.355469 "/>
<path style=" stroke:none;fill-rule:nonzero;fill:rgb(66.668701%,66.668701%,66.668701%);fill-opacity:1;" d="M 34.007812 221.128906 L 32.195312 226.722656 L 42.546875 226.570312 L 43.832031 221.28125 Z M 34.007812 221.128906 "/>
<path style=" stroke:none;fill-rule:nonzero;fill:rgb(66.668701%,66.668701%,66.668701%);fill-opacity:1;" d="M 33.554688 210.851562 L 30.457031 215.765625 L 38.316406 215.839844 L 40.433594 210.777344 Z M 33.554688 210.851562 "/>
<path style=" stroke:none;fill-rule:nonzero;fill:rgb(66.668701%,66.668701%,66.668701%);fill-opacity:1;" d="M 46.25 210.777344 L 44.4375 215.460938 L 52.449219 215.234375 L 54.414062 210.625 Z M 46.25 210.777344 "/>
<path style=" stroke:none;fill-rule:nonzero;fill:rgb(66.668701%,66.668701%,66.668701%);fill-opacity:1;" d="M 60.835938 210.398438 L 58.417969 215.234375 L 61.59375 215.234375 L 65.371094 210.398438 Z M 60.835938 210.398438 "/>
<path style=" stroke:none;fill-rule:nonzero;fill:rgb(66.668701%,66.668701%,66.668701%);fill-opacity:1;" d="M 59.25 199.441406 L 57.210938 204.65625 L 64.011719 204.65625 L 66.277344 199.136719 Z M 59.25 199.441406 "/>
<path style=" stroke:none;fill-rule:nonzero;fill:rgb(66.668701%,66.668701%,66.668701%);fill-opacity:1;" d="M 48.441406 199.820312 L 45.117188 205.335938 L 51.089844 205.488281 L 54.261719 199.59375 Z M 48.441406 199.820312 "/>
<path style=" stroke:none;fill-rule:nonzero;fill:rgb(66.668701%,66.668701%,66.668701%);fill-opacity:1;" d="M 61.972656 188.9375 L 59.25 194.378906 L 65.371094 194.152344 L 67.789062 188.332031 Z M 61.972656 188.9375 "/>
<path style=" stroke:none;fill-rule:nonzero;fill:rgb(66.668701%,66.668701%,66.668701%);fill-opacity:1;" d="M 71.796875 188.179688 L 70.359375 194 L 76.101562 193.695312 L 78.296875 187.800781 Z M 71.796875 188.179688 "/>
<path style=" stroke:none;fill-rule:nonzero;fill:rgb(66.668701%,66.668701%,66.668701%);fill-opacity:1;" d="M 75.875 177.523438 L 73.457031 182.511719 L 77.992188 182.285156 L 80.261719 177.070312 Z M 75.875 177.523438 "/>
<path style=" stroke:none;fill-rule:nonzero;fill:rgb(66.668701%,66.668701%,66.668701%);fill-opacity:1;" d="M 84.339844 176.769531 L 82.828125 181.605469 L 88.195312 181.453125 L 90.160156 176.316406 Z M 84.339844 176.769531 "/>
<path style=" stroke:none;fill-rule:nonzero;fill:rgb(66.668701%,66.668701%,66.668701%);fill-opacity:1;" d="M 88.949219 166.339844 L 86.757812 171.554688 L 89.78125 171.476562 L 92.199219 166.113281 Z M 88.949219 166.339844 "/>
<path style=" stroke:none;fill-rule:nonzero;fill:rgb(66.668701%,66.668701%,66.668701%);fill-opacity:1;" d="M 96.28125 165.660156 L 93.863281 170.496094 L 98.550781 170.648438 L 101.042969 165.207031 Z M 96.28125 165.660156 "/>
<path style=" stroke:none;fill-rule:nonzero;fill:rgb(66.668701%,66.668701%,66.668701%);fill-opacity:1;" d="M 103.839844 155.003906 L 101.34375 159.613281 L 103.761719 159.613281 L 106.03125 154.625 Z M 103.839844 155.003906 "/>
<path style=" stroke:none;fill-rule:nonzero;fill:rgb(66.668701%,66.668701%,66.668701%);fill-opacity:1;" d="M 108.902344 154.472656 L 107.089844 159.3125 L 111.546875 159.007812 L 113.4375 153.945312 Z M 108.902344 154.472656 "/>
<path style=" stroke:none;fill-rule:nonzero;fill:rgb(66.668701%,66.668701%,66.668701%);fill-opacity:1;" d="M 117.140625 142.910156 L 115.175781 147.746094 L 117.441406 147.898438 L 118.804688 142.761719 Z M 117.140625 142.910156 "/>
<path style=" stroke:none;fill-rule:nonzero;fill:rgb(66.668701%,66.668701%,66.668701%);fill-opacity:1;" d="M 122.128906 142.304688 L 120.3125 146.917969 L 123.789062 147.21875 L 126.285156 142.078125 Z M 122.128906 142.304688 "/>
<path style=" stroke:none;fill-rule:nonzero;fill:rgb(66.668701%,66.668701%,66.668701%);fill-opacity:1;" d="M 131.195312 130.367188 L 129.382812 134.824219 L 131.195312 135.125 L 133.238281 130.214844 Z M 131.195312 130.367188 "/>
<path style=" stroke:none;fill-rule:nonzero;fill:rgb(64.709473%,64.709473%,64.709473%);fill-opacity:1;" d="M 21.3125 218.789062 L 19.421875 222.1875 L 187.878906 221.585938 L 187.878906 218.257812 Z M 21.3125 218.789062 "/>
<path style=" stroke:none;fill-rule:nonzero;fill:rgb(64.709473%,64.709473%,64.709473%);fill-opacity:1;" d="M 34.839844 209.113281 L 33.402344 211.757812 L 187.878906 208.8125 L 187.878906 204.203125 Z M 34.839844 209.113281 "/>
<path style=" stroke:none;fill-rule:nonzero;fill:rgb(64.709473%,64.709473%,64.709473%);fill-opacity:1;" d="M 49.953125 197.398438 L 47.839844 200.648438 L 187.574219 195.285156 L 187.574219 191.277344 Z M 49.953125 197.398438 "/>
<path style=" stroke:none;fill-rule:nonzero;fill:rgb(64.709473%,64.709473%,64.709473%);fill-opacity:1;" d="M 62.953125 187.199219 L 61.59375 189.691406 L 187.878906 181.832031 L 187.878906 177.828125 Z M 62.953125 187.199219 "/>
<path style=" stroke:none;fill-rule:nonzero;fill:rgb(64.709473%,64.709473%,64.709473%);fill-opacity:1;" d="M 76.933594 175.40625 L 75.574219 178.203125 L 187.878906 169.363281 L 187.878906 165.734375 Z M 76.933594 175.40625 "/>
<path style=" stroke:none;fill-rule:nonzero;fill:rgb(64.709473%,64.709473%,64.709473%);fill-opacity:1;" d="M 90.007812 164.070312 L 88.574219 167.09375 L 187.878906 157.117188 L 187.878906 153.566406 Z M 90.007812 164.070312 "/>
<path style=" stroke:none;fill-rule:nonzero;fill:rgb(64.709473%,64.709473%,64.709473%);fill-opacity:1;" d="M 104.898438 152.960938 L 103.386719 155.910156 L 187.878906 145.328125 L 187.878906 142.230469 Z M 104.898438 152.960938 "/>
<path style=" stroke:none;fill-rule:nonzero;fill:rgb(64.709473%,64.709473%,64.709473%);fill-opacity:1;" d="M 117.820312 140.945312 L 116.988281 143.441406 L 187.878906 134.296875 L 187.878906 130.820312 Z M 117.820312 140.945312 "/>
<path style=" stroke:none;fill-rule:nonzero;fill:rgb(64.709473%,64.709473%,64.709473%);fill-opacity:1;" d="M 131.726562 128.777344 L 130.894531 130.96875 L 187.878906 122.355469 L 187.878906 119.332031 Z M 131.726562 128.777344 "/>
<path style=" stroke:none;fill-rule:nonzero;fill:rgb(70.979309%,70.979309%,70.979309%);fill-opacity:1;" d="M 21.613281 218.109375 L 19.953125 221.433594 L 187.878906 220.902344 L 187.878906 217.578125 Z M 21.613281 218.109375 "/>
<path style=" stroke:none;fill-rule:nonzero;fill:rgb(70.979309%,70.979309%,70.979309%);fill-opacity:1;" d="M 35.21875 208.359375 L 33.554688 211.003906 L 187.878906 208.132812 L 187.878906 203.523438 Z M 35.21875 208.359375 "/>
<path style=" stroke:none;fill-rule:nonzero;fill:rgb(70.979309%,70.979309%,70.979309%);fill-opacity:1;" d="M 50.257812 196.71875 L 48.292969 199.894531 L 187.878906 194.527344 L 187.878906 190.597656 Z M 50.257812 196.71875 "/>
<path style=" stroke:none;fill-rule:nonzero;fill:rgb(70.979309%,70.979309%,70.979309%);fill-opacity:1;" d="M 63.332031 186.441406 L 61.972656 188.9375 L 187.878906 181.152344 L 187.878906 177.070312 Z M 63.332031 186.441406 "/>
<path style=" stroke:none;fill-rule:nonzero;fill:rgb(70.979309%,70.979309%,70.979309%);fill-opacity:1;" d="M 77.238281 174.726562 L 75.875 177.523438 L 187.878906 168.605469 L 187.878906 164.980469 Z M 77.238281 174.726562 "/>
<path style=" stroke:none;fill-rule:nonzero;fill:rgb(70.979309%,70.979309%,70.979309%);fill-opacity:1;" d="M 90.3125 163.316406 L 88.875 166.414062 L 187.878906 156.363281 L 187.878906 152.8125 Z M 90.3125 163.316406 "/>
<path style=" stroke:none;fill-rule:nonzero;fill:rgb(70.979309%,70.979309%,70.979309%);fill-opacity:1;" d="M 105.351562 152.207031 L 103.761719 155.152344 L 187.878906 144.574219 L 187.878906 141.476562 Z M 105.351562 152.207031 "/>
<path style=" stroke:none;fill-rule:nonzero;fill:rgb(70.979309%,70.979309%,70.979309%);fill-opacity:1;" d="M 118.121094 140.265625 L 117.292969 142.761719 L 187.878906 133.617188 L 187.878906 130.140625 Z M 118.121094 140.265625 "/>
<path style=" stroke:none;fill-rule:nonzero;fill:rgb(70.979309%,70.979309%,70.979309%);fill-opacity:1;" d="M 132.027344 128.023438 L 131.195312 130.214844 L 187.726562 121.597656 L 187.878906 118.574219 Z M 132.027344 128.023438 "/>
<path style=" stroke:none;fill-rule:nonzero;fill:rgb(52.938843%,52.938843%,52.938843%);fill-opacity:1;" d="M 174.273438 120.617188 L 80.261719 231.484375 L 107.84375 231.484375 L 109.507812 221.054688 L 109.886719 217.652344 L 116.609375 217.730469 L 118.574219 205.714844 L 125.152344 205.5625 L 128.855469 193.167969 L 133.617188 192.867188 L 136.789062 180.773438 L 141.929688 180.472656 L 144.800781 168.757812 L 150.015625 168.304688 L 153.492188 156.515625 L 158.480469 155.757812 L 160.972656 144.875 L 166.261719 144.269531 L 168.984375 132.785156 L 174.578125 131.953125 L 177.75 120.238281 Z M 174.273438 120.617188 "/>
<path style=" stroke:none;fill-rule:nonzero;fill:rgb(60.778809%,60.778809%,60.778809%);fill-opacity:1;" d="M 144.269531 125.832031 L 48.59375 230.425781 L 81.089844 231.484375 L 172.914062 120.917969 Z M 144.269531 125.832031 "/>
<path style=" stroke:none;fill-rule:nonzero;fill:rgb(93.728638%,93.728638%,93.728638%);fill-opacity:1;" d="M 170.496094 121.371094 L 77.917969 231.332031 L 83.660156 231.410156 L 176.390625 120.390625 Z M 170.496094 121.371094 "/>
<path style=" stroke:none;fill-rule:nonzero;fill:rgb(93.728638%,93.728638%,93.728638%);fill-opacity:1;" d="M 139.8125 126.738281 L 47.308594 230.652344 L 52.296875 230.652344 L 144.875 125.832031 Z M 139.8125 126.738281 "/>
</g>
</svg>
